<svg width="3987" height="825" xmlns="http://www.w3.org/2000/svg" xmlns:xlink="http://www.w3.org/1999/xlink" xml:space="preserve" overflow="hidden"><g transform="translate(-64 -2653)"><g><g><g><g><path d="M1059.79 3020.02C1057.38 3020.02 1054.97 3020.02 1052.56 3020.02L1031.68 2963.8C1079.87 2936.5 1096.73 2875.46 1070.23 2827.27 1042.92 2779.08 981.887 2762.22 933.7 2788.72 910.409 2801.57 892.741 2824.06 886.316 2849.76L811.625 2841.73C806.003 2806.39 773.075 2781.49 737.737 2787.12 705.612 2791.93 682.322 2819.24 682.322 2851.37 682.322 2862.61 685.534 2873.85 691.156 2884.29L601.206 2972.64C584.341 2959.79 563.459 2952.56 541.775 2952.56 486.359 2952.56 441.384 2997.53 441.384 3052.95 441.384 3108.37 486.359 3153.34 541.775 3153.34L561.853 3273.81C528.925 3288.27 513.666 3326.82 528.122 3359.74 542.578 3392.67 581.128 3407.93 614.056 3393.48 644.575 3380.62 659.834 3346.89 651 3314.77L721.675 3277.82C767.453 3328.42 846.159 3332.44 897.559 3286.66 923.259 3263.37 938.519 3229.64 938.519 3195.1 938.519 3186.27 937.716 3176.63 935.306 3167.8L1013.21 3127.64C1037.3 3154.95 1078.26 3157.36 1105.57 3133.26 1132.88 3109.17 1135.28 3068.21 1111.19 3040.9 1095.93 3028.05 1078.26 3020.02 1059.79 3020.02ZM1059.79 3044.12C1070.23 3044.12 1078.26 3052.15 1078.26 3062.59 1078.26 3073.03 1070.23 3081.06 1059.79 3081.06 1049.35 3081.06 1041.32 3073.03 1041.32 3062.59 1041.32 3062.59 1041.32 3062.59 1041.32 3062.59 1041.32 3052.15 1049.35 3044.12 1059.79 3044.12ZM982.691 2815.23C997.95 2815.23 1010.8 2828.07 1010.8 2843.33 1010.8 2858.59 997.95 2871.44 982.691 2871.44 967.431 2871.44 954.581 2858.59 954.581 2843.33 954.581 2843.33 954.581 2843.33 954.581 2843.33 954.581 2828.07 966.628 2815.23 982.691 2815.23ZM925.669 2906.78C925.669 2902.77 928.078 2897.95 931.291 2895.54 939.322 2889.92 948.959 2885.1 958.597 2882.69 965.825 2880.28 973.856 2879.48 981.887 2879.48 989.919 2879.48 997.95 2881.08 1005.18 2882.69 1014.82 2885.1 1024.45 2889.92 1032.48 2896.34 1035.7 2898.75 1038.11 2903.57 1038.11 2907.58L1038.11 2929.27 925.669 2929.27 925.669 2906.78ZM746.572 2810.41C757.012 2810.41 765.044 2818.44 765.044 2828.88 765.044 2839.32 757.012 2847.35 746.572 2847.35 736.131 2847.35 728.1 2839.32 728.1 2828.88 728.1 2828.88 728.1 2828.88 728.1 2828.88 728.1 2819.24 736.131 2810.41 746.572 2810.41ZM708.825 2870.64C708.825 2867.43 710.431 2865.02 712.841 2863.41 718.462 2859.4 724.887 2856.99 731.312 2855.38 736.131 2853.77 741.753 2852.97 746.572 2852.97 751.391 2852.97 757.012 2853.77 761.831 2855.38 768.256 2856.99 773.878 2860.2 779.5 2864.22 781.909 2865.82 783.516 2869.03 783.516 2871.44L783.516 2885.9 709.628 2885.9 709.628 2870.64ZM540.169 2991.91C555.428 2991.91 568.278 3004.76 568.278 3020.02 568.278 3035.28 555.428 3048.13 540.169 3048.13 524.909 3048.13 512.059 3035.28 512.059 3020.02 512.059 3020.02 512.059 3020.02 512.059 3020.02 512.862 3004.76 524.909 2991.91 540.169 2991.91ZM483.95 3105.15 483.95 3083.47C483.95 3079.45 486.359 3074.63 489.572 3072.23 497.603 3066.6 507.241 3061.78 516.878 3059.38 524.106 3056.97 532.137 3056.16 540.169 3056.16 548.2 3056.16 556.231 3057.77 563.459 3059.38 573.097 3061.78 582.734 3066.6 590.766 3073.03 593.978 3075.44 596.387 3080.26 596.387 3084.27L596.387 3105.96 483.95 3105.15ZM622.891 3366.97 548.2 3366.97 548.2 3352.52C548.2 3349.3 549.806 3346.89 552.216 3345.29 557.837 3341.27 564.262 3338.06 570.687 3336.45 575.506 3334.85 581.128 3334.04 585.947 3334.04 590.766 3334.04 596.387 3334.85 601.206 3336.45 607.631 3338.06 613.253 3341.27 618.875 3345.29 621.284 3346.89 622.891 3350.11 622.891 3352.52L622.891 3366.97ZM566.672 3310.75C566.672 3300.31 574.703 3292.28 585.144 3292.28 595.584 3292.28 603.616 3300.31 603.616 3310.75 603.616 3321.19 595.584 3329.23 585.144 3329.23 575.506 3330.03 567.475 3321.19 566.672 3310.75ZM630.922 3288.27C620.481 3277.82 606.025 3271.4 591.569 3269.79L571.491 3149.32C590.766 3142.9 607.631 3130.85 619.678 3114.79L694.369 3154.14C682.322 3186.27 684.731 3222.41 700.794 3252.93L630.922 3288.27ZM709.628 3124.43 635.741 3085.88C638.953 3075.44 640.559 3065 640.559 3053.75 640.559 3032.87 634.134 3012.79 622.087 2995.93L712.037 2908.39C742.556 2926.86 782.712 2918.02 801.184 2887.51 803.594 2883.49 805.2 2879.48 806.806 2875.46L881.497 2883.49C883.103 2912.4 897.559 2939.71 920.85 2957.38L854.994 3080.26C802.791 3059.38 742.556 3077.85 709.628 3124.43ZM846.159 3154.14C846.159 3173.42 830.097 3188.68 810.822 3188.68 791.547 3188.68 776.287 3173.42 776.287 3154.14 776.287 3134.87 791.547 3119.61 810.822 3119.61 810.822 3119.61 810.822 3119.61 811.625 3119.61 830.9 3119.61 846.159 3134.87 846.159 3154.14ZM880.694 3259.35 741.753 3259.35 741.753 3232.85C741.753 3227.23 744.162 3222.41 748.981 3219.2 759.422 3211.97 770.666 3206.35 782.712 3202.33 792.35 3199.92 801.987 3198.32 811.625 3198.32 821.262 3198.32 830.9 3199.92 840.537 3202.33 852.584 3205.54 864.631 3211.17 874.269 3219.2 878.284 3222.41 881.497 3228.03 881.497 3232.85L880.694 3259.35ZM994.737 3085.88C994.737 3090.7 995.541 3095.52 997.147 3100.33L923.259 3138.88C914.425 3121.22 900.772 3106.76 884.709 3095.52L950.566 2972.64C961.006 2976.65 972.25 2978.26 983.494 2978.26 989.919 2978.26 996.344 2977.46 1002.77 2976.65L1023.65 3032.87C1004.37 3044.12 993.934 3064.19 994.737 3085.88ZM1096.73 3118 1022.04 3118 1022.04 3103.55C1022.04 3100.33 1023.65 3097.93 1026.06 3096.32 1031.68 3092.3 1038.11 3089.09 1044.53 3087.48 1049.35 3085.88 1054.97 3085.07 1059.79 3085.07 1064.61 3085.07 1070.23 3085.88 1075.05 3087.48 1081.47 3089.09 1087.1 3092.3 1092.72 3096.32 1095.13 3097.93 1096.73 3101.14 1096.73 3103.55L1096.73 3118Z" fill="#000000" fill-rule="nonzero" fill-opacity="1"/></g></g></g><g><g><g><path d="M2049.5 2832.08 2165.15 2948.53 2187.64 2926.05 2049.5 2793.53 1908.15 2928.46 1930.64 2950.94Z" fill="#000000" fill-rule="nonzero" fill-opacity="1"/><path d="M2306.5 3122.01 2242.25 3122.01 2242.25 3057.76 2306.5 3057.76 2306.5 3122.01ZM2306.5 3218.38 2242.25 3218.38 2242.25 3154.13 2306.5 3154.13 2306.5 3218.38ZM2210.12 3122.01 2145.88 3122.01 2145.88 3057.76 2210.12 3057.76 2210.12 3122.01ZM2210.12 3218.38 2145.88 3218.38 2145.88 3154.13 2210.12 3154.13 2210.12 3218.38ZM2105.72 3122.01 1993.28 3122.01 1993.28 3089.88 2105.72 3089.88 2105.72 3122.01ZM2049.5 2969.42C2063.15 2969.42 2073.59 2979.86 2073.59 2993.51 2073.59 3007.16 2063.15 3017.6 2049.5 3017.6 2035.85 3017.6 2025.41 3007.16 2025.41 2993.51 2025.41 2979.86 2035.85 2969.42 2049.5 2969.42ZM1953.13 3122.01 1888.88 3122.01 1888.88 3057.76 1953.13 3057.76 1953.13 3122.01ZM1953.13 3218.38 1888.88 3218.38 1888.88 3154.13 1953.13 3154.13 1953.13 3218.38ZM1856.75 3122.01 1792.5 3122.01 1792.5 3057.76 1856.75 3057.76 1856.75 3122.01ZM1856.75 3218.38 1792.5 3218.38 1792.5 3154.13 1856.75 3154.13 1856.75 3218.38ZM2145.88 3017.6 2145.88 2969.42 2049.5 2873.04 1953.13 2969.42 1953.13 3017.6 1760.38 3017.6 1760.38 3290.67 1993.28 3290.67 1993.28 3202.32C1993.28 3179.83 2009.34 3154.13 2049.5 3154.13 2089.66 3154.13 2105.72 3179.83 2105.72 3202.32L2105.72 3290.67 2338.62 3290.67 2338.62 3017.6 2145.88 3017.6Z" fill="#000000" fill-rule="nonzero" fill-opacity="1"/></g></g></g><g><g><g><path d="M337.177 69.2388 332.244 64.3054 339.899 56.2991C343.922 51.7585 344.901 42.5742 334.417 31.7047 323.822 21.1022 312.93 22.1125 308.93 26.1232L193.053 134.28 230.035 171.261 321.706 75.3311 326.396 80.0205C328.207 81.6454 328.377 84.4243 326.777 86.2578L256.878 156.164C253.849 159.089 253.766 163.916 256.691 166.945 259.617 169.974 264.444 170.058 267.473 167.133 267.536 167.072 267.599 167.009 267.66 166.945L337.57 97.0395C345.125 89.2487 344.949 76.813 337.177 69.2388Z" fill="#000000" fill-rule="nonzero" fill-opacity="1" transform="matrix(1 0 0 1 3684 2897)"/><path d="M107.009 223.104C104.114 226.07 101.318 229.131 98.6217 232.288L65.575 269.601 94.6948 298.724 132.008 265.655C135.164 262.971 138.227 260.175 141.196 257.267L218.429 182.885 181.41 145.866Z" fill="#000000" fill-rule="nonzero" fill-opacity="1" transform="matrix(1 0 0 1 3684 2897)"/><path d="M27.7702 318.546C26.6963 320.467 27.1021 322.877 28.7462 324.341L20.0423 338.5C18.8715 340.418 19.4768 342.921 21.3942 344.092 22.0209 344.475 22.7394 344.681 23.4735 344.688 24.2423 344.685 24.9944 344.464 25.6429 344.051L39.6614 335.244C41.1132 336.852 43.4785 337.255 45.3802 336.217L81.5989 308.988 55.2355 282.628Z" fill="#000000" fill-rule="nonzero" fill-opacity="1" transform="matrix(1 0 0 1 3684 2897)"/></g></g></g><g><g><g><path d="M3404.46 3185.62 3058.54 3185.62 3058.54 2975.6 3404.46 2975.6ZM3441.52 2963.25C3441.52 2949.6 3430.46 2938.54 3416.81 2938.54L3046.19 2938.54C3032.54 2938.54 3021.48 2949.6 3021.48 2963.25L3021.48 3222.69 3441.52 3222.69Z" fill="#000000" fill-rule="nonzero" fill-opacity="1"/><path d="M3268.56 3247.4 3268.56 3253.57C3268.77 3256.77 3266.35 3259.54 3263.15 3259.75 3262.9 3259.77 3262.64 3259.77 3262.39 3259.75L3200.61 3259.75C3197.41 3259.96 3194.65 3257.54 3194.44 3254.34 3194.42 3254.08 3194.42 3253.83 3194.44 3253.57L3194.44 3247.4 2947.35 3247.4 2947.35 3259.75C2947.35 3273.4 2958.42 3284.46 2972.06 3284.46L3490.94 3284.46C3504.58 3284.46 3515.65 3273.4 3515.65 3259.75L3515.65 3247.4Z" fill="#000000" fill-rule="nonzero" fill-opacity="1"/><path d="M3231.5 2994.14C3183.74 2994.14 3145.02 3032.85 3145.02 3080.61 3145.02 3128.38 3183.74 3167.09 3231.5 3167.09 3279.26 3167.09 3317.98 3128.38 3317.98 3080.61 3317.98 3032.85 3279.26 2994.14 3231.5 2994.14ZM3237.68 3086.79 3266.03 3086.79C3262.8 3108.09 3252.87 3127.8 3237.68 3143.06ZM3237.68 3074.44 3237.68 3018.1C3252.89 3033.38 3262.82 3053.12 3266.03 3074.44ZM3225.32 3074.44 3197.9 3074.44C3200.97 3053.48 3210.57 3034.03 3225.32 3018.84ZM3225.32 3086.79 3225.32 3142.39C3210.59 3127.18 3201 3107.74 3197.9 3086.79ZM3185.48 3074.44 3159.04 3074.44C3161.78 3042.08 3185.67 3015.48 3217.54 3009.27 3199.93 3026.84 3188.65 3049.76 3185.48 3074.44ZM3185.48 3086.79C3188.66 3111.51 3199.98 3134.46 3217.66 3152.02 3185.74 3145.82 3161.81 3119.19 3159.04 3086.79ZM3278.45 3086.79 3303.96 3086.79C3301.25 3118.78 3277.87 3145.2 3246.45 3151.77 3264.05 3134.28 3275.31 3111.41 3278.45 3086.79ZM3278.45 3074.44C3275.28 3049.88 3264.1 3027.06 3246.63 3009.52 3277.96 3016.16 3301.25 3042.53 3303.96 3074.44Z" fill="#000000" fill-rule="nonzero" fill-opacity="1"/></g></g></g><path d="M0 0 177.792 518.618" stroke="#000000" stroke-width="27.5" stroke-linecap="butt" stroke-linejoin="miter" stroke-miterlimit="8" stroke-opacity="1" fill="none" fill-rule="evenodd" transform="matrix(1 0 0 -1 3563 3375.62)"/><path d="M122.5 2844C122.5 2776.9 176.897 2722.5 244 2722.5 311.102 2722.5 365.5 2776.9 365.5 2844 365.5 2911.1 311.102 2965.5 244 2965.5 176.897 2965.5 122.5 2911.1 122.5 2844Z" stroke="#042433" stroke-width="6.875" stroke-linecap="butt" stroke-linejoin="miter" stroke-miterlimit="8" stroke-opacity="1" fill="#FFB0AF" fill-rule="evenodd" fill-opacity="1"/><text fill="#000000" fill-opacity="1" font-family="Consolas,Consolas_MSFontService,sans-serif" font-style="normal" font-variant="normal" font-weight="700" font-stretch="normal" font-size="202" text-anchor="start" direction="ltr" writing-mode="lr-tb" unicode-bidi="normal" text-decoration="none" transform="matrix(1 0 0 1 188 2913)">1</text><path d="M1420.5 2844C1420.5 2776.9 1474.9 2722.5 1542 2722.5 1609.1 2722.5 1663.5 2776.9 1663.5 2844 1663.5 2911.1 1609.1 2965.5 1542 2965.5 1474.9 2965.5 1420.5 2911.1 1420.5 2844Z" stroke="#042433" stroke-width="6.875" stroke-linecap="butt" stroke-linejoin="miter" stroke-miterlimit="8" stroke-opacity="1" fill="#FFB0AF" fill-rule="evenodd" fill-opacity="1"/><text fill="#000000" fill-opacity="1" font-family="Consolas,Consolas_MSFontService,sans-serif" font-style="normal" font-variant="normal" font-weight="700" font-stretch="normal" font-size="202" text-anchor="start" direction="ltr" writing-mode="lr-tb" unicode-bidi="normal" text-decoration="none" transform="matrix(1 0 0 1 1485.54 2913)">2</text><path d="M2717.5 2844C2717.5 2776.9 2771.9 2722.5 2839 2722.5 2906.1 2722.5 2960.5 2776.9 2960.5 2844 2960.5 2911.1 2906.1 2965.5 2839 2965.5 2771.9 2965.5 2717.5 2911.1 2717.5 2844Z" stroke="#042433" stroke-width="6.875" stroke-linecap="butt" stroke-linejoin="miter" stroke-miterlimit="8" stroke-opacity="1" fill="#FFB0AF" fill-rule="evenodd" fill-opacity="1"/><text fill="#000000" fill-opacity="1" font-family="Consolas,Consolas_MSFontService,sans-serif" font-style="normal" font-variant="normal" font-weight="700" font-stretch="normal" font-size="202" text-anchor="start" direction="ltr" writing-mode="lr-tb" unicode-bidi="normal" text-decoration="none" transform="matrix(1 0 0 1 2783.07 2913)">3</text></g></g></svg>